<svg id="Laag_1" data-name="Laag 1" xmlns="http://www.w3.org/2000/svg" xmlns:xlink="http://www.w3.org/1999/xlink" viewBox="0 0 3212.56 690.31"><defs><clipPath id="clip-path" transform="translate(0 0)"><rect width="3212.56" height="690.32" style="fill:none"/></clipPath></defs><title>logo-wave</title><g style="clip-path:url(#clip-path)"><path d="M3101.17,578.93c-157.8,0-218.83-90.83-279.18-218.48-78.9-166.91-124.42-254.14-270.07-248.83s-191.85,161.81-206.35,248.83c-15.17,91-57.66,219.25-242.76,218.48" transform="translate(0 0)" style="fill:none;stroke:#ffd618;stroke-linecap:round;stroke-width:222.76699829101562px"/><path d="M1109.75,578.93c-157.8,0-218.83-90.83-279.18-218.48C751.67,193.54,706.15,106.3,560.5,111.62S368.65,273.43,354.15,360.45c-15.17,91-57.66,219.25-242.76,218.48" transform="translate(0 0)" style="fill:none;stroke:#ffd618;stroke-linecap:round;stroke-width:222.76699829101562px"/><path d="M2103.56,578.93c-157.8,0-218.83-90.83-279.18-218.48C1745.49,193.54,1700,106.3,1554.31,111.62S1362.46,273.43,1348,360.45c-15.17,91-57.66,219.25-242.76,218.48" transform="translate(0 0)" style="fill:none;stroke:#ffd618;stroke-linecap:round;stroke-width:222.76699829101562px"/></g></svg>