<svg id="Laag_1" data-name="Laag 1" xmlns="http://www.w3.org/2000/svg" xmlns:xlink="http://www.w3.org/1999/xlink" viewBox="0 0 388.52 113.12"><defs><clipPath id="clip-path" transform="translate(0 0)"><rect width="388.52" height="113.12" style="fill:none"/></clipPath></defs><title>logo-white</title><g style="clip-path:url(#clip-path)"><path d="M218.46,22.34a2.37,2.37,0,0,1-1.73,1.57c-0.94,0-10.7-6.92-22-6.92-7.24,0-14.79,2.83-14.79,12.27,0,12,18.41,14.16,32.25,24.39,8,6,13.53,14.32,13.53,26.27,0,20-14.16,33.2-34,33.2-16,0-32.88-6.92-32.88-9.44a14.24,14.24,0,0,1,.79-2.52l3.62-10.38A2.14,2.14,0,0,1,165,89.21c0.94,0,12.59,6.92,26.12,6.92,8.81,0,14.16-4.72,14.16-14.47,0-14-16-15.42-32.1-25.17-8.34-5-13.69-11.33-13.69-24.39C159.46,9.44,175.82,0,194.07,0,209,0,224.44,6.92,224.44,9.6a5.54,5.54,0,0,1-.79,2.36Z" transform="translate(0 0)" style="fill:#ffd618"/><path d="M65.61,108.24c0,1.73-.32,2.2-2.2,2.2H47.83c-1.89,0-2.2-.47-2.2-2.2V59.78c0-6-.79-13.22-8.81-13.22C30.21,46.57,25,51.13,23,53v55.22c0,1.73-.31,2.2-2.2,2.2H5.19c-1.89,0-2.2-.47-2.2-2.2V60.73C3,38.55,0,39.8,0,36.19a2,2,0,0,1,1.73-1.73l12-3.93A7.75,7.75,0,0,1,16,30c2,0,3.3,3.46,5,10.86C25.65,36.81,32.73,30,45.15,30,53.81,30,65.61,34,65.61,53v55.22Z" transform="translate(0 0)" style="fill:#fff"/><path d="M127.29,71.58c0-14.63-2-25.8-12.9-25.8s-12.9,11.17-12.9,25.8,1.89,25.8,12.9,25.8,12.9-11,12.9-25.8m-12.9,41.53c-21.24,0-34.14-16.2-34.14-41.53S93.15,30,114.39,30c21.08,0,34.14,16.21,34.14,41.54s-12.9,41.53-34.14,41.53" transform="translate(0 0)" style="fill:#fff"/><path d="M293,112.65a7.79,7.79,0,0,1-2.36.47c-2,0-3.3-3-5-9.28a34.46,34.46,0,0,1-24.07,9.28c-8.65,0-20.45-3.93-20.45-23V36c0-2.2,1.1-2.36,3-2.83l13.21-2.67c0.47,0,2-.47,2.52-0.47,0.95,0,1.26.63,1.26,3.31v50c0,6,.79,13.22,8.81,13.22,6.61,0,11.8-3.46,13.85-4.87V36c0-2.2,1.1-2.36,3-2.83L300,30.52c0.47,0,2-.47,2.68-0.47,0.79,0,1.1.63,1.1,3.31V82.44c0,22.19,3,20.93,3,24.55a2,2,0,0,1-1.73,1.73Z" transform="translate(0 0)" style="fill:#fff"/><path d="M388.52,108.24c0,1.73-.32,2.2-2.2,2.2H370.75c-1.89,0-2.2-.47-2.2-2.2V59.78c0-6-.79-13.22-8.81-13.22-6.61,0-11.8,4.56-13.85,6.45v55.22c0,1.73-.32,2.2-2.2,2.2H328.11c-1.89,0-2.2-.47-2.2-2.2V60.73c0-22.18-3-20.93-3-24.54a2,2,0,0,1,1.73-1.73l12-3.93A7.75,7.75,0,0,1,339,30c2,0,3.3,3.46,5,10.86C348.56,36.81,355.64,30,368.07,30c8.65,0,20.45,3.93,20.45,23v55.22Z" transform="translate(0 0)" style="fill:#fff"/></g></svg>