<svg id="Laag_1" data-name="Laag 1" xmlns="http://www.w3.org/2000/svg" xmlns:xlink="http://www.w3.org/1999/xlink" viewBox="0 0 219.66 24.54"><defs><clipPath id="clip-path" transform="translate(0 0)"><rect width="219.66" height="24.54" style="fill:none"/></clipPath></defs><title>waves-filter</title><g style="clip-path:url(#clip-path)"><path d="M215.7,20.58c-5.61,0-7.78-3.23-9.93-7.77-2.81-5.93-4.42-9-9.6-8.85s-6.82,5.75-7.34,8.85-2.05,7.8-8.63,7.77" transform="translate(0 0)" style="fill:none;stroke:#ffd618;stroke-linecap:round;stroke-width:7.920000076293945px"/><path d="M144.9,20.58c-5.61,0-7.78-3.23-9.93-7.77-2.81-5.93-4.42-9-9.6-8.85s-6.82,5.75-7.34,8.85-2,7.8-8.63,7.77" transform="translate(0 0)" style="fill:none;stroke:#ffd618;stroke-linecap:round;stroke-width:7.920000076293945px"/><path d="M180.23,20.58c-5.61,0-7.78-3.23-9.93-7.77-2.81-5.93-4.42-9-9.6-8.85s-6.82,5.75-7.34,8.85-2.05,7.8-8.63,7.77" transform="translate(0 0)" style="fill:none;stroke:#ffd618;stroke-linecap:round;stroke-width:7.920000076293945px"/><path d="M110.25,20.58c-5.61,0-7.78-3.23-9.93-7.77-2.81-5.93-4.42-9-9.6-8.85s-6.82,5.75-7.34,8.85-2,7.8-8.63,7.77" transform="translate(0 0)" style="fill:none;stroke:#ffd618;stroke-linecap:round;stroke-width:7.920000076293945px"/><path d="M39.45,20.58c-5.61,0-7.78-3.23-9.93-7.77-2.8-5.93-4.42-9-9.6-8.85s-6.82,5.75-7.34,8.85-2,7.8-8.63,7.77" transform="translate(0 0)" style="fill:none;stroke:#ffd618;stroke-linecap:round;stroke-width:7.920000076293945px"/><path d="M74.79,20.58c-5.61,0-7.78-3.23-9.93-7.77-2.8-5.93-4.42-9-9.6-8.85s-6.82,5.75-7.34,8.85-2,7.8-8.63,7.77" transform="translate(0 0)" style="fill:none;stroke:#ffd618;stroke-linecap:round;stroke-width:7.920000076293945px"/></g></svg>